<?xml version="1.0" encoding="UTF-8"?>
<svg xmlns="http://www.w3.org/2000/svg" width="976" height="1932" viewBox="0 0 976 1932">
<title>Run 1 — Authored Teaching Map</title>
<rect width="100%" height="100%" fill="#111318"/>
<style>text{font-family:Arial,Helvetica,sans-serif} .title{font-size:26px;font-weight:700;fill:#eff2f7} .subtitle{font-size:13px;fill:#9fa9bb} .room-id{font-size:11px;font-weight:700;fill:#eff2f7;text-anchor:middle} .room-type{font-size:10px;fill:#eff2f7;text-anchor:middle} .edge-label{font-size:10px;fill:#eff2f7;text-anchor:middle;paint-order:stroke;stroke:#111318;stroke-width:4px;stroke-linejoin:round} .legend{font-size:11px;fill:#eff2f7}</style>
<text x="56" y="42" class="title">Run 1 — Authored Teaching Map</text>
<text x="56" y="68" class="subtitle">18 rooms · 18 connections · coordinates follow the minimap contract</text>
<text x="56" y="91" class="subtitle">Solid lines are normal routes; dashed lines are optional, detour, or dig routes. Door dots show gate type.</text>
<rect x="56" y="112" width="96" height="96" fill="none" stroke="#9fa9bb" stroke-width="1" opacity="0.16"/>
<rect x="152" y="112" width="96" height="96" fill="none" stroke="#9fa9bb" stroke-width="1" opacity="0.16"/>
<rect x="248" y="112" width="96" height="96" fill="none" stroke="#9fa9bb" stroke-width="1" opacity="0.16"/>
<rect x="344" y="112" width="96" height="96" fill="none" stroke="#9fa9bb" stroke-width="1" opacity="0.16"/>
<rect x="440" y="112" width="96" height="96" fill="none" stroke="#9fa9bb" stroke-width="1" opacity="0.16"/>
<rect x="536" y="112" width="96" height="96" fill="none" stroke="#9fa9bb" stroke-width="1" opacity="0.16"/>
<rect x="632" y="112" width="96" height="96" fill="none" stroke="#9fa9bb" stroke-width="1" opacity="0.16"/>
<rect x="728" y="112" width="96" height="96" fill="none" stroke="#9fa9bb" stroke-width="1" opacity="0.16"/>
<rect x="824" y="112" width="96" height="96" fill="none" stroke="#9fa9bb" stroke-width="1" opacity="0.16"/>
<rect x="56" y="208" width="96" height="96" fill="none" stroke="#9fa9bb" stroke-width="1" opacity="0.16"/>
<rect x="152" y="208" width="96" height="96" fill="none" stroke="#9fa9bb" stroke-width="1" opacity="0.16"/>
<rect x="248" y="208" width="96" height="96" fill="none" stroke="#9fa9bb" stroke-width="1" opacity="0.16"/>
<rect x="344" y="208" width="96" height="96" fill="none" stroke="#9fa9bb" stroke-width="1" opacity="0.16"/>
<rect x="440" y="208" width="96" height="96" fill="none" stroke="#9fa9bb" stroke-width="1" opacity="0.16"/>
<rect x="536" y="208" width="96" height="96" fill="none" stroke="#9fa9bb" stroke-width="1" opacity="0.16"/>
<rect x="632" y="208" width="96" height="96" fill="none" stroke="#9fa9bb" stroke-width="1" opacity="0.16"/>
<rect x="728" y="208" width="96" height="96" fill="none" stroke="#9fa9bb" stroke-width="1" opacity="0.16"/>
<rect x="824" y="208" width="96" height="96" fill="none" stroke="#9fa9bb" stroke-width="1" opacity="0.16"/>
<rect x="56" y="304" width="96" height="96" fill="none" stroke="#9fa9bb" stroke-width="1" opacity="0.16"/>
<rect x="152" y="304" width="96" height="96" fill="none" stroke="#9fa9bb" stroke-width="1" opacity="0.16"/>
<rect x="248" y="304" width="96" height="96" fill="none" stroke="#9fa9bb" stroke-width="1" opacity="0.16"/>
<rect x="344" y="304" width="96" height="96" fill="none" stroke="#9fa9bb" stroke-width="1" opacity="0.16"/>
<rect x="440" y="304" width="96" height="96" fill="none" stroke="#9fa9bb" stroke-width="1" opacity="0.16"/>
<rect x="536" y="304" width="96" height="96" fill="none" stroke="#9fa9bb" stroke-width="1" opacity="0.16"/>
<rect x="632" y="304" width="96" height="96" fill="none" stroke="#9fa9bb" stroke-width="1" opacity="0.16"/>
<rect x="728" y="304" width="96" height="96" fill="none" stroke="#9fa9bb" stroke-width="1" opacity="0.16"/>
<rect x="824" y="304" width="96" height="96" fill="none" stroke="#9fa9bb" stroke-width="1" opacity="0.16"/>
<rect x="56" y="400" width="96" height="96" fill="none" stroke="#9fa9bb" stroke-width="1" opacity="0.16"/>
<rect x="152" y="400" width="96" height="96" fill="none" stroke="#9fa9bb" stroke-width="1" opacity="0.16"/>
<rect x="248" y="400" width="96" height="96" fill="none" stroke="#9fa9bb" stroke-width="1" opacity="0.16"/>
<rect x="344" y="400" width="96" height="96" fill="none" stroke="#9fa9bb" stroke-width="1" opacity="0.16"/>
<rect x="440" y="400" width="96" height="96" fill="none" stroke="#9fa9bb" stroke-width="1" opacity="0.16"/>
<rect x="536" y="400" width="96" height="96" fill="none" stroke="#9fa9bb" stroke-width="1" opacity="0.16"/>
<rect x="632" y="400" width="96" height="96" fill="none" stroke="#9fa9bb" stroke-width="1" opacity="0.16"/>
<rect x="728" y="400" width="96" height="96" fill="none" stroke="#9fa9bb" stroke-width="1" opacity="0.16"/>
<rect x="824" y="400" width="96" height="96" fill="none" stroke="#9fa9bb" stroke-width="1" opacity="0.16"/>
<rect x="56" y="496" width="96" height="96" fill="none" stroke="#9fa9bb" stroke-width="1" opacity="0.16"/>
<rect x="152" y="496" width="96" height="96" fill="none" stroke="#9fa9bb" stroke-width="1" opacity="0.16"/>
<rect x="248" y="496" width="96" height="96" fill="none" stroke="#9fa9bb" stroke-width="1" opacity="0.16"/>
<rect x="344" y="496" width="96" height="96" fill="none" stroke="#9fa9bb" stroke-width="1" opacity="0.16"/>
<rect x="440" y="496" width="96" height="96" fill="none" stroke="#9fa9bb" stroke-width="1" opacity="0.16"/>
<rect x="536" y="496" width="96" height="96" fill="none" stroke="#9fa9bb" stroke-width="1" opacity="0.16"/>
<rect x="632" y="496" width="96" height="96" fill="none" stroke="#9fa9bb" stroke-width="1" opacity="0.16"/>
<rect x="728" y="496" width="96" height="96" fill="none" stroke="#9fa9bb" stroke-width="1" opacity="0.16"/>
<rect x="824" y="496" width="96" height="96" fill="none" stroke="#9fa9bb" stroke-width="1" opacity="0.16"/>
<rect x="56" y="592" width="96" height="96" fill="none" stroke="#9fa9bb" stroke-width="1" opacity="0.16"/>
<rect x="152" y="592" width="96" height="96" fill="none" stroke="#9fa9bb" stroke-width="1" opacity="0.16"/>
<rect x="248" y="592" width="96" height="96" fill="none" stroke="#9fa9bb" stroke-width="1" opacity="0.16"/>
<rect x="344" y="592" width="96" height="96" fill="none" stroke="#9fa9bb" stroke-width="1" opacity="0.16"/>
<rect x="440" y="592" width="96" height="96" fill="none" stroke="#9fa9bb" stroke-width="1" opacity="0.16"/>
<rect x="536" y="592" width="96" height="96" fill="none" stroke="#9fa9bb" stroke-width="1" opacity="0.16"/>
<rect x="632" y="592" width="96" height="96" fill="none" stroke="#9fa9bb" stroke-width="1" opacity="0.16"/>
<rect x="728" y="592" width="96" height="96" fill="none" stroke="#9fa9bb" stroke-width="1" opacity="0.16"/>
<rect x="824" y="592" width="96" height="96" fill="none" stroke="#9fa9bb" stroke-width="1" opacity="0.16"/>
<rect x="56" y="688" width="96" height="96" fill="none" stroke="#9fa9bb" stroke-width="1" opacity="0.16"/>
<rect x="152" y="688" width="96" height="96" fill="none" stroke="#9fa9bb" stroke-width="1" opacity="0.16"/>
<rect x="248" y="688" width="96" height="96" fill="none" stroke="#9fa9bb" stroke-width="1" opacity="0.16"/>
<rect x="344" y="688" width="96" height="96" fill="none" stroke="#9fa9bb" stroke-width="1" opacity="0.16"/>
<rect x="440" y="688" width="96" height="96" fill="none" stroke="#9fa9bb" stroke-width="1" opacity="0.16"/>
<rect x="536" y="688" width="96" height="96" fill="none" stroke="#9fa9bb" stroke-width="1" opacity="0.16"/>
<rect x="632" y="688" width="96" height="96" fill="none" stroke="#9fa9bb" stroke-width="1" opacity="0.16"/>
<rect x="728" y="688" width="96" height="96" fill="none" stroke="#9fa9bb" stroke-width="1" opacity="0.16"/>
<rect x="824" y="688" width="96" height="96" fill="none" stroke="#9fa9bb" stroke-width="1" opacity="0.16"/>
<rect x="56" y="784" width="96" height="96" fill="none" stroke="#9fa9bb" stroke-width="1" opacity="0.16"/>
<rect x="152" y="784" width="96" height="96" fill="none" stroke="#9fa9bb" stroke-width="1" opacity="0.16"/>
<rect x="248" y="784" width="96" height="96" fill="none" stroke="#9fa9bb" stroke-width="1" opacity="0.16"/>
<rect x="344" y="784" width="96" height="96" fill="none" stroke="#9fa9bb" stroke-width="1" opacity="0.16"/>
<rect x="440" y="784" width="96" height="96" fill="none" stroke="#9fa9bb" stroke-width="1" opacity="0.16"/>
<rect x="536" y="784" width="96" height="96" fill="none" stroke="#9fa9bb" stroke-width="1" opacity="0.16"/>
<rect x="632" y="784" width="96" height="96" fill="none" stroke="#9fa9bb" stroke-width="1" opacity="0.16"/>
<rect x="728" y="784" width="96" height="96" fill="none" stroke="#9fa9bb" stroke-width="1" opacity="0.16"/>
<rect x="824" y="784" width="96" height="96" fill="none" stroke="#9fa9bb" stroke-width="1" opacity="0.16"/>
<rect x="56" y="880" width="96" height="96" fill="none" stroke="#9fa9bb" stroke-width="1" opacity="0.16"/>
<rect x="152" y="880" width="96" height="96" fill="none" stroke="#9fa9bb" stroke-width="1" opacity="0.16"/>
<rect x="248" y="880" width="96" height="96" fill="none" stroke="#9fa9bb" stroke-width="1" opacity="0.16"/>
<rect x="344" y="880" width="96" height="96" fill="none" stroke="#9fa9bb" stroke-width="1" opacity="0.16"/>
<rect x="440" y="880" width="96" height="96" fill="none" stroke="#9fa9bb" stroke-width="1" opacity="0.16"/>
<rect x="536" y="880" width="96" height="96" fill="none" stroke="#9fa9bb" stroke-width="1" opacity="0.16"/>
<rect x="632" y="880" width="96" height="96" fill="none" stroke="#9fa9bb" stroke-width="1" opacity="0.16"/>
<rect x="728" y="880" width="96" height="96" fill="none" stroke="#9fa9bb" stroke-width="1" opacity="0.16"/>
<rect x="824" y="880" width="96" height="96" fill="none" stroke="#9fa9bb" stroke-width="1" opacity="0.16"/>
<rect x="56" y="976" width="96" height="96" fill="none" stroke="#9fa9bb" stroke-width="1" opacity="0.16"/>
<rect x="152" y="976" width="96" height="96" fill="none" stroke="#9fa9bb" stroke-width="1" opacity="0.16"/>
<rect x="248" y="976" width="96" height="96" fill="none" stroke="#9fa9bb" stroke-width="1" opacity="0.16"/>
<rect x="344" y="976" width="96" height="96" fill="none" stroke="#9fa9bb" stroke-width="1" opacity="0.16"/>
<rect x="440" y="976" width="96" height="96" fill="none" stroke="#9fa9bb" stroke-width="1" opacity="0.16"/>
<rect x="536" y="976" width="96" height="96" fill="none" stroke="#9fa9bb" stroke-width="1" opacity="0.16"/>
<rect x="632" y="976" width="96" height="96" fill="none" stroke="#9fa9bb" stroke-width="1" opacity="0.16"/>
<rect x="728" y="976" width="96" height="96" fill="none" stroke="#9fa9bb" stroke-width="1" opacity="0.16"/>
<rect x="824" y="976" width="96" height="96" fill="none" stroke="#9fa9bb" stroke-width="1" opacity="0.16"/>
<rect x="56" y="1072" width="96" height="96" fill="none" stroke="#9fa9bb" stroke-width="1" opacity="0.16"/>
<rect x="152" y="1072" width="96" height="96" fill="none" stroke="#9fa9bb" stroke-width="1" opacity="0.16"/>
<rect x="248" y="1072" width="96" height="96" fill="none" stroke="#9fa9bb" stroke-width="1" opacity="0.16"/>
<rect x="344" y="1072" width="96" height="96" fill="none" stroke="#9fa9bb" stroke-width="1" opacity="0.16"/>
<rect x="440" y="1072" width="96" height="96" fill="none" stroke="#9fa9bb" stroke-width="1" opacity="0.16"/>
<rect x="536" y="1072" width="96" height="96" fill="none" stroke="#9fa9bb" stroke-width="1" opacity="0.16"/>
<rect x="632" y="1072" width="96" height="96" fill="none" stroke="#9fa9bb" stroke-width="1" opacity="0.16"/>
<rect x="728" y="1072" width="96" height="96" fill="none" stroke="#9fa9bb" stroke-width="1" opacity="0.16"/>
<rect x="824" y="1072" width="96" height="96" fill="none" stroke="#9fa9bb" stroke-width="1" opacity="0.16"/>
<rect x="56" y="1168" width="96" height="96" fill="none" stroke="#9fa9bb" stroke-width="1" opacity="0.16"/>
<rect x="152" y="1168" width="96" height="96" fill="none" stroke="#9fa9bb" stroke-width="1" opacity="0.16"/>
<rect x="248" y="1168" width="96" height="96" fill="none" stroke="#9fa9bb" stroke-width="1" opacity="0.16"/>
<rect x="344" y="1168" width="96" height="96" fill="none" stroke="#9fa9bb" stroke-width="1" opacity="0.16"/>
<rect x="440" y="1168" width="96" height="96" fill="none" stroke="#9fa9bb" stroke-width="1" opacity="0.16"/>
<rect x="536" y="1168" width="96" height="96" fill="none" stroke="#9fa9bb" stroke-width="1" opacity="0.16"/>
<rect x="632" y="1168" width="96" height="96" fill="none" stroke="#9fa9bb" stroke-width="1" opacity="0.16"/>
<rect x="728" y="1168" width="96" height="96" fill="none" stroke="#9fa9bb" stroke-width="1" opacity="0.16"/>
<rect x="824" y="1168" width="96" height="96" fill="none" stroke="#9fa9bb" stroke-width="1" opacity="0.16"/>
<rect x="56" y="1264" width="96" height="96" fill="none" stroke="#9fa9bb" stroke-width="1" opacity="0.16"/>
<rect x="152" y="1264" width="96" height="96" fill="none" stroke="#9fa9bb" stroke-width="1" opacity="0.16"/>
<rect x="248" y="1264" width="96" height="96" fill="none" stroke="#9fa9bb" stroke-width="1" opacity="0.16"/>
<rect x="344" y="1264" width="96" height="96" fill="none" stroke="#9fa9bb" stroke-width="1" opacity="0.16"/>
<rect x="440" y="1264" width="96" height="96" fill="none" stroke="#9fa9bb" stroke-width="1" opacity="0.16"/>
<rect x="536" y="1264" width="96" height="96" fill="none" stroke="#9fa9bb" stroke-width="1" opacity="0.16"/>
<rect x="632" y="1264" width="96" height="96" fill="none" stroke="#9fa9bb" stroke-width="1" opacity="0.16"/>
<rect x="728" y="1264" width="96" height="96" fill="none" stroke="#9fa9bb" stroke-width="1" opacity="0.16"/>
<rect x="824" y="1264" width="96" height="96" fill="none" stroke="#9fa9bb" stroke-width="1" opacity="0.16"/>
<rect x="56" y="1360" width="96" height="96" fill="none" stroke="#9fa9bb" stroke-width="1" opacity="0.16"/>
<rect x="152" y="1360" width="96" height="96" fill="none" stroke="#9fa9bb" stroke-width="1" opacity="0.16"/>
<rect x="248" y="1360" width="96" height="96" fill="none" stroke="#9fa9bb" stroke-width="1" opacity="0.16"/>
<rect x="344" y="1360" width="96" height="96" fill="none" stroke="#9fa9bb" stroke-width="1" opacity="0.16"/>
<rect x="440" y="1360" width="96" height="96" fill="none" stroke="#9fa9bb" stroke-width="1" opacity="0.16"/>
<rect x="536" y="1360" width="96" height="96" fill="none" stroke="#9fa9bb" stroke-width="1" opacity="0.16"/>
<rect x="632" y="1360" width="96" height="96" fill="none" stroke="#9fa9bb" stroke-width="1" opacity="0.16"/>
<rect x="728" y="1360" width="96" height="96" fill="none" stroke="#9fa9bb" stroke-width="1" opacity="0.16"/>
<rect x="824" y="1360" width="96" height="96" fill="none" stroke="#9fa9bb" stroke-width="1" opacity="0.16"/>
<rect x="56" y="1456" width="96" height="96" fill="none" stroke="#9fa9bb" stroke-width="1" opacity="0.16"/>
<rect x="152" y="1456" width="96" height="96" fill="none" stroke="#9fa9bb" stroke-width="1" opacity="0.16"/>
<rect x="248" y="1456" width="96" height="96" fill="none" stroke="#9fa9bb" stroke-width="1" opacity="0.16"/>
<rect x="344" y="1456" width="96" height="96" fill="none" stroke="#9fa9bb" stroke-width="1" opacity="0.16"/>
<rect x="440" y="1456" width="96" height="96" fill="none" stroke="#9fa9bb" stroke-width="1" opacity="0.16"/>
<rect x="536" y="1456" width="96" height="96" fill="none" stroke="#9fa9bb" stroke-width="1" opacity="0.16"/>
<rect x="632" y="1456" width="96" height="96" fill="none" stroke="#9fa9bb" stroke-width="1" opacity="0.16"/>
<rect x="728" y="1456" width="96" height="96" fill="none" stroke="#9fa9bb" stroke-width="1" opacity="0.16"/>
<rect x="824" y="1456" width="96" height="96" fill="none" stroke="#9fa9bb" stroke-width="1" opacity="0.16"/>
<rect x="56" y="1552" width="96" height="96" fill="none" stroke="#9fa9bb" stroke-width="1" opacity="0.16"/>
<rect x="152" y="1552" width="96" height="96" fill="none" stroke="#9fa9bb" stroke-width="1" opacity="0.16"/>
<rect x="248" y="1552" width="96" height="96" fill="none" stroke="#9fa9bb" stroke-width="1" opacity="0.16"/>
<rect x="344" y="1552" width="96" height="96" fill="none" stroke="#9fa9bb" stroke-width="1" opacity="0.16"/>
<rect x="440" y="1552" width="96" height="96" fill="none" stroke="#9fa9bb" stroke-width="1" opacity="0.16"/>
<rect x="536" y="1552" width="96" height="96" fill="none" stroke="#9fa9bb" stroke-width="1" opacity="0.16"/>
<rect x="632" y="1552" width="96" height="96" fill="none" stroke="#9fa9bb" stroke-width="1" opacity="0.16"/>
<rect x="728" y="1552" width="96" height="96" fill="none" stroke="#9fa9bb" stroke-width="1" opacity="0.16"/>
<rect x="824" y="1552" width="96" height="96" fill="none" stroke="#9fa9bb" stroke-width="1" opacity="0.16"/>
<rect x="56" y="1648" width="96" height="96" fill="none" stroke="#9fa9bb" stroke-width="1" opacity="0.16"/>
<rect x="152" y="1648" width="96" height="96" fill="none" stroke="#9fa9bb" stroke-width="1" opacity="0.16"/>
<rect x="248" y="1648" width="96" height="96" fill="none" stroke="#9fa9bb" stroke-width="1" opacity="0.16"/>
<rect x="344" y="1648" width="96" height="96" fill="none" stroke="#9fa9bb" stroke-width="1" opacity="0.16"/>
<rect x="440" y="1648" width="96" height="96" fill="none" stroke="#9fa9bb" stroke-width="1" opacity="0.16"/>
<rect x="536" y="1648" width="96" height="96" fill="none" stroke="#9fa9bb" stroke-width="1" opacity="0.16"/>
<rect x="632" y="1648" width="96" height="96" fill="none" stroke="#9fa9bb" stroke-width="1" opacity="0.16"/>
<rect x="728" y="1648" width="96" height="96" fill="none" stroke="#9fa9bb" stroke-width="1" opacity="0.16"/>
<rect x="824" y="1648" width="96" height="96" fill="none" stroke="#9fa9bb" stroke-width="1" opacity="0.16"/>
<line x1="488.0" y1="1696.0" x2="296.0" y2="1504.0" stroke="#707e9d" stroke-width="7" stroke-linecap="round" opacity="0.82"/>
<circle cx="392.0" cy="1600.0" r="8" fill="#707e9d" stroke="#111318" stroke-width="2"/>
<line x1="488.0" y1="1696.0" x2="680.0" y2="1504.0" stroke="#707e9d" stroke-width="7" stroke-linecap="round" opacity="0.82"/>
<circle cx="584.0" cy="1600.0" r="8" fill="#707e9d" stroke="#111318" stroke-width="2"/>
<line x1="296.0" y1="1504.0" x2="104.0" y2="1312.0" stroke="#5680eb" stroke-width="7" stroke-linecap="round" opacity="0.82"/>
<circle cx="200.0" cy="1408.0" r="8" fill="#5680eb" stroke="#111318" stroke-width="2"/>
<text x="200.0" y="1408.0" dy="-12" class="edge-label">PUZZLE / puzzle_a</text>
<line x1="296.0" y1="1504.0" x2="488.0" y2="1312.0" stroke="#5680eb" stroke-width="7" stroke-linecap="round" opacity="0.82"/>
<circle cx="392.0" cy="1408.0" r="8" fill="#5680eb" stroke="#111318" stroke-width="2"/>
<text x="392.0" y="1408.0" dy="-12" class="edge-label">PUZZLE / puzzle_b</text>
<line x1="488.0" y1="1312.0" x2="680.0" y2="1120.0" stroke="#707e9d" stroke-width="7" stroke-linecap="round" opacity="0.82"/>
<circle cx="584.0" cy="1216.0" r="8" fill="#707e9d" stroke="#111318" stroke-width="2"/>
<line x1="680.0" y1="1120.0" x2="488.0" y2="928.0" stroke="#707e9d" stroke-width="7" stroke-linecap="round" opacity="0.82"/>
<circle cx="584.0" cy="1024.0" r="8" fill="#707e9d" stroke="#111318" stroke-width="2"/>
<line x1="680.0" y1="1120.0" x2="872.0" y2="928.0" stroke="#707e9d" stroke-width="7" stroke-linecap="round" opacity="0.82"/>
<circle cx="776.0" cy="1024.0" r="8" fill="#707e9d" stroke="#111318" stroke-width="2"/>
<line x1="488.0" y1="928.0" x2="296.0" y2="736.0" stroke="#707e9d" stroke-width="7" stroke-linecap="round" opacity="0.82"/>
<circle cx="392.0" cy="832.0" r="8" fill="#707e9d" stroke="#111318" stroke-width="2"/>
<line x1="488.0" y1="928.0" x2="680.0" y2="736.0" stroke="#707e9d" stroke-width="7" stroke-linecap="round" opacity="0.82"/>
<circle cx="584.0" cy="832.0" r="8" fill="#707e9d" stroke="#111318" stroke-width="2"/>
<line x1="872.0" y1="928.0" x2="680.0" y2="736.0" stroke="#707e9d" stroke-width="7" stroke-linecap="round" opacity="0.82"/>
<circle cx="776.0" cy="832.0" r="8" fill="#707e9d" stroke="#111318" stroke-width="2"/>
<line x1="680.0" y1="736.0" x2="872.0" y2="544.0" stroke="#707e9d" stroke-width="7" stroke-linecap="round" opacity="0.82"/>
<circle cx="776.0" cy="640.0" r="8" fill="#707e9d" stroke="#111318" stroke-width="2"/>
<line x1="872.0" y1="544.0" x2="680.0" y2="352.0" stroke="#707e9d" stroke-width="7" stroke-linecap="round" opacity="0.82"/>
<circle cx="776.0" cy="448.0" r="8" fill="#707e9d" stroke="#111318" stroke-width="2"/>
<line x1="488.0" y1="544.0" x2="680.0" y2="352.0" stroke="#707e9d" stroke-width="7" stroke-linecap="round" opacity="0.82"/>
<circle cx="584.0" cy="448.0" r="8" fill="#707e9d" stroke="#111318" stroke-width="2"/>
<line x1="488.0" y1="544.0" x2="296.0" y2="352.0" stroke="#707e9d" stroke-width="7" stroke-linecap="round" opacity="0.82"/>
<circle cx="392.0" cy="448.0" r="8" fill="#707e9d" stroke="#111318" stroke-width="2"/>
<line x1="104.0" y1="544.0" x2="296.0" y2="352.0" stroke="#5680eb" stroke-width="7" stroke-linecap="round" opacity="0.82"/>
<circle cx="200.0" cy="448.0" r="8" fill="#5680eb" stroke="#111318" stroke-width="2"/>
<text x="200.0" y="448.0" dy="-12" class="edge-label">PUZZLE / puzzle_b</text>
<line x1="296.0" y1="352.0" x2="104.0" y2="160.0" stroke="#5680eb" stroke-width="7" stroke-linecap="round" opacity="0.82"/>
<circle cx="200.0" cy="256.0" r="8" fill="#5680eb" stroke="#111318" stroke-width="2"/>
<text x="200.0" y="256.0" dy="-12" class="edge-label">PUZZLE / puzzle_a</text>
<line x1="680.0" y1="352.0" x2="488.0" y2="160.0" stroke="#5680eb" stroke-width="7" stroke-linecap="round" opacity="0.82"/>
<circle cx="584.0" cy="256.0" r="8" fill="#5680eb" stroke="#111318" stroke-width="2"/>
<text x="584.0" y="256.0" dy="-12" class="edge-label">PUZZLE / puzzle_a</text>
<line x1="680.0" y1="352.0" x2="872.0" y2="160.0" stroke="#707e9d" stroke-width="7" stroke-linecap="round" opacity="0.82"/>
<circle cx="776.0" cy="256.0" r="8" fill="#707e9d" stroke="#111318" stroke-width="2"/>
<g><title>room_0_0 — HUB</title><rect x="449.0" y="1667.0" width="78.0" height="58.0" rx="10" fill="#f4f4f4" stroke="#eff2f7" stroke-width="3"/>
<text x="488.0" y="1691.0" class="room-id" style="fill:#111318">(0,0)</text>
<text x="488.0" y="1709.0" class="room-type" style="fill:#111318">HUB</text></g>
<g><title>room_-1_1 — ORB</title><rect x="257.0" y="1475.0" width="78.0" height="58.0" rx="10" fill="#73eff7" stroke="#eff2f7" stroke-width="3"/>
<text x="296.0" y="1499.0" class="room-id" style="fill:#eff2f7">(-1,1)</text>
<text x="296.0" y="1517.0" class="room-type" style="fill:#eff2f7">ORB</text></g>
<g><title>room_1_1 — COMBAT</title><rect x="641.0" y="1475.0" width="78.0" height="58.0" rx="10" fill="#566c86" stroke="#eff2f7" stroke-width="3"/>
<text x="680.0" y="1499.0" class="room-id" style="fill:#eff2f7">(1,1)</text>
<text x="680.0" y="1517.0" class="room-type" style="fill:#eff2f7">COMBAT</text></g>
<g><title>room_-2_2 — TREASURE · CHEST</title><rect x="65.0" y="1283.0" width="78.0" height="58.0" rx="10" fill="#ffcd75" stroke="#eff2f7" stroke-width="3"/>
<text x="104.0" y="1307.0" class="room-id" style="fill:#eff2f7">(-2,2)</text>
<text x="104.0" y="1325.0" class="room-type" style="fill:#eff2f7">TREASURE · CHEST</text></g>
<g><title>room_0_3 — COMBAT</title><rect x="449.0" y="1283.0" width="78.0" height="58.0" rx="10" fill="#566c86" stroke="#eff2f7" stroke-width="3"/>
<text x="488.0" y="1307.0" class="room-id" style="fill:#eff2f7">(0,3)</text>
<text x="488.0" y="1325.0" class="room-type" style="fill:#eff2f7">COMBAT</text></g>
<g><title>room_1_4 — COMBAT</title><rect x="641.0" y="1091.0" width="78.0" height="58.0" rx="10" fill="#566c86" stroke="#eff2f7" stroke-width="3"/>
<text x="680.0" y="1115.0" class="room-id" style="fill:#eff2f7">(1,4)</text>
<text x="680.0" y="1133.0" class="room-type" style="fill:#eff2f7">COMBAT</text></g>
<g><title>room_0_5 — COMBAT</title><rect x="449.0" y="899.0" width="78.0" height="58.0" rx="10" fill="#566c86" stroke="#eff2f7" stroke-width="3"/>
<text x="488.0" y="923.0" class="room-id" style="fill:#eff2f7">(0,5)</text>
<text x="488.0" y="941.0" class="room-type" style="fill:#eff2f7">COMBAT</text></g>
<g><title>room_2_5 — FIRE</title><rect x="833.0" y="899.0" width="78.0" height="58.0" rx="10" fill="#ef7d57" stroke="#eff2f7" stroke-width="3"/>
<text x="872.0" y="923.0" class="room-id" style="fill:#eff2f7">(2,5)</text>
<text x="872.0" y="941.0" class="room-type" style="fill:#eff2f7">FIRE</text></g>
<g><title>room_-1_6 — COMBAT</title><rect x="257.0" y="707.0" width="78.0" height="58.0" rx="10" fill="#566c86" stroke="#eff2f7" stroke-width="3"/>
<text x="296.0" y="731.0" class="room-id" style="fill:#eff2f7">(-1,6)</text>
<text x="296.0" y="749.0" class="room-type" style="fill:#eff2f7">COMBAT</text></g>
<g><title>room_1_6 — NPC</title><rect x="641.0" y="707.0" width="78.0" height="58.0" rx="10" fill="#8f5bad" stroke="#eff2f7" stroke-width="3"/>
<text x="680.0" y="731.0" class="room-id" style="fill:#eff2f7">(1,6)</text>
<text x="680.0" y="749.0" class="room-type" style="fill:#eff2f7">NPC</text></g>
<g><title>room_0_7 — COMBAT</title><rect x="449.0" y="515.0" width="78.0" height="58.0" rx="10" fill="#566c86" stroke="#eff2f7" stroke-width="3"/>
<text x="488.0" y="539.0" class="room-id" style="fill:#eff2f7">(0,7)</text>
<text x="488.0" y="557.0" class="room-type" style="fill:#eff2f7">COMBAT</text></g>
<g><title>room_2_7 — COMBAT</title><rect x="833.0" y="515.0" width="78.0" height="58.0" rx="10" fill="#566c86" stroke="#eff2f7" stroke-width="3"/>
<text x="872.0" y="539.0" class="room-id" style="fill:#eff2f7">(2,7)</text>
<text x="872.0" y="557.0" class="room-type" style="fill:#eff2f7">COMBAT</text></g>
<g><title>room_-3_8 — TREASURE · CHEST</title><rect x="65.0" y="515.0" width="78.0" height="58.0" rx="10" fill="#ffcd75" stroke="#eff2f7" stroke-width="3"/>
<text x="104.0" y="539.0" class="room-id" style="fill:#eff2f7">(-3,8)</text>
<text x="104.0" y="557.0" class="room-type" style="fill:#eff2f7">TREASURE · CHEST</text></g>
<g><title>room_-1_9 — COMBAT</title><rect x="257.0" y="323.0" width="78.0" height="58.0" rx="10" fill="#566c86" stroke="#eff2f7" stroke-width="3"/>
<text x="296.0" y="347.0" class="room-id" style="fill:#eff2f7">(-1,9)</text>
<text x="296.0" y="365.0" class="room-type" style="fill:#eff2f7">COMBAT</text></g>
<g><title>room_1_9 — COMBAT</title><rect x="641.0" y="323.0" width="78.0" height="58.0" rx="10" fill="#566c86" stroke="#eff2f7" stroke-width="3"/>
<text x="680.0" y="347.0" class="room-id" style="fill:#eff2f7">(1,9)</text>
<text x="680.0" y="365.0" class="room-type" style="fill:#eff2f7">COMBAT</text></g>
<g><title>room_-2_11 — BOSS</title><rect x="65.0" y="131.0" width="78.0" height="58.0" rx="10" fill="#b13e53" stroke="#eff2f7" stroke-width="3"/>
<text x="104.0" y="155.0" class="room-id" style="fill:#eff2f7">(-2,11)</text>
<text x="104.0" y="173.0" class="room-type" style="fill:#eff2f7">BOSS</text></g>
<g><title>room_0_11 — TREASURE · CHEST</title><rect x="449.0" y="131.0" width="78.0" height="58.0" rx="10" fill="#ffcd75" stroke="#eff2f7" stroke-width="3"/>
<text x="488.0" y="155.0" class="room-id" style="fill:#eff2f7">(0,11)</text>
<text x="488.0" y="173.0" class="room-type" style="fill:#eff2f7">TREASURE · CHEST</text></g>
<g><title>room_2_11 — ORB</title><rect x="833.0" y="131.0" width="78.0" height="58.0" rx="10" fill="#73eff7" stroke="#eff2f7" stroke-width="3"/>
<text x="872.0" y="155.0" class="room-id" style="fill:#eff2f7">(2,11)</text>
<text x="872.0" y="173.0" class="room-type" style="fill:#eff2f7">ORB</text></g>
<rect x="56" y="1768" width="980" height="116" rx="12" fill="#191d27" stroke="#9fa9bb" stroke-width="1"/>
<text x="74" y="1793" class="legend" font-weight="700">ROOMS</text>
<rect x="74" y="1803" width="12" height="12" rx="3" fill="#f4f4f4"/>
<text x="92" y="1813" class="legend">HUB</text>
<rect x="206" y="1803" width="12" height="12" rx="3" fill="#566c86"/>
<text x="224" y="1813" class="legend">COMBAT</text>
<rect x="338" y="1803" width="12" height="12" rx="3" fill="#94b0c2"/>
<text x="356" y="1813" class="legend">SPECIAL</text>
<rect x="470" y="1803" width="12" height="12" rx="3" fill="#ffcd75"/>
<text x="488" y="1813" class="legend">TREASURE</text>
<rect x="74" y="1828" width="12" height="12" rx="3" fill="#ef7d57"/>
<text x="92" y="1838" class="legend">FIRE</text>
<rect x="206" y="1828" width="12" height="12" rx="3" fill="#8f5bad"/>
<text x="224" y="1838" class="legend">NPC</text>
<rect x="338" y="1828" width="12" height="12" rx="3" fill="#73eff7"/>
<text x="356" y="1838" class="legend">ORB</text>
<rect x="470" y="1828" width="12" height="12" rx="3" fill="#b13e53"/>
<text x="488" y="1838" class="legend">BOSS</text>
<text x="606" y="1793" class="legend" font-weight="700">DOORS</text>
<circle cx="612" cy="1809" r="6" fill="#707e9d"/>
<text x="624" y="1813" class="legend">CLEAR</text>
<circle cx="762" cy="1809" r="6" fill="#5680eb"/>
<text x="774" y="1813" class="legend">PUZZLE</text>
<circle cx="612" cy="1834" r="6" fill="#f1a053"/>
<text x="624" y="1838" class="legend">ELEMENT</text>
<circle cx="762" cy="1834" r="6" fill="#73eff7"/>
<text x="774" y="1838" class="legend">ORB</text>
<line x1="606" y1="1869" x2="652" y2="1869" stroke="#707e9d" stroke-width="4"/>
<text x="664" y="1873" class="legend">main / fork</text>
<line x1="786" y1="1869" x2="832" y2="1869" stroke="#707e9d" stroke-width="4" stroke-dasharray="8 6"/>
<text x="844" y="1873" class="legend">optional / detour / dig</text>
</svg>
